<svg width="110" height="42" viewBox="0 0 110 42" fill="none" xmlns="http://www.w3.org/2000/svg">
<path d="M12.2756 17.1591C11.5398 17.1591 10.9051 16.9967 10.3714 16.6719C9.84115 16.3438 9.43182 15.8864 9.14347 15.2997C8.85843 14.7098 8.71591 14.0237 8.71591 13.2415C8.71591 12.4593 8.85843 11.7699 9.14347 11.1733C9.43182 10.5734 9.83286 10.1061 10.3466 9.77131C10.8636 9.43324 11.4669 9.2642 12.1562 9.2642C12.554 9.2642 12.9467 9.33049 13.3345 9.46307C13.7223 9.59564 14.0753 9.81108 14.3935 10.1094C14.7116 10.4044 14.9652 10.7955 15.1541 11.2827C15.343 11.7699 15.4375 12.3698 15.4375 13.0824V13.5795H9.55114V12.5653H14.2443C14.2443 12.1345 14.1581 11.75 13.9858 11.4119C13.8168 11.0739 13.5748 10.8071 13.2599 10.6115C12.9484 10.416 12.5805 10.3182 12.1562 10.3182C11.6889 10.3182 11.2846 10.4342 10.9432 10.6662C10.6051 10.8949 10.3449 11.1932 10.1626 11.5611C9.98035 11.929 9.8892 12.3234 9.8892 12.7443V13.4205C9.8892 13.9972 9.98864 14.486 10.1875 14.8871C10.3897 15.2848 10.6697 15.5881 11.0277 15.7969C11.3857 16.0024 11.8016 16.1051 12.2756 16.1051C12.5838 16.1051 12.8622 16.062 13.1108 15.9759C13.3627 15.8864 13.5798 15.7538 13.7621 15.5781C13.9444 15.3991 14.0852 15.1771 14.1847 14.9119L15.3182 15.2301C15.1989 15.6146 14.9983 15.9527 14.7166 16.2443C14.4349 16.5327 14.0869 16.758 13.6726 16.9205C13.2583 17.0795 12.7926 17.1591 12.2756 17.1591ZM22.6314 11.0739L21.5774 11.3722C21.5111 11.1965 21.4134 11.0258 21.2841 10.8601C21.1581 10.6911 20.9858 10.5518 20.767 10.4425C20.5483 10.3331 20.2682 10.2784 19.9268 10.2784C19.4595 10.2784 19.0701 10.3861 18.7585 10.6016C18.4503 10.8137 18.2962 11.0838 18.2962 11.4119C18.2962 11.7036 18.4022 11.9339 18.6143 12.103C18.8265 12.272 19.1579 12.4129 19.6087 12.5256L20.7422 12.804C21.425 12.9697 21.9337 13.2232 22.2685 13.5646C22.6032 13.9027 22.7706 14.3385 22.7706 14.8722C22.7706 15.3097 22.6446 15.7008 22.3928 16.0455C22.1442 16.3902 21.7962 16.6619 21.3487 16.8608C20.9013 17.0597 20.3809 17.1591 19.7876 17.1591C19.0088 17.1591 18.3641 16.9901 17.8537 16.652C17.3433 16.3139 17.0201 15.8201 16.8842 15.1705L17.9979 14.892C18.1039 15.303 18.3045 15.6113 18.5994 15.8168C18.8977 16.0223 19.2872 16.125 19.7678 16.125C20.3146 16.125 20.7488 16.009 21.0703 15.777C21.3951 15.5417 21.5575 15.2599 21.5575 14.9318C21.5575 14.6667 21.4647 14.4446 21.2791 14.2656C21.0935 14.0833 20.8085 13.9474 20.424 13.858L19.1513 13.5597C18.4519 13.3939 17.9382 13.1371 17.6101 12.7891C17.2853 12.4377 17.1229 11.9986 17.1229 11.4716C17.1229 11.0407 17.2438 10.6596 17.4858 10.3281C17.7311 9.99669 18.0642 9.73651 18.4851 9.54758C18.9093 9.35866 19.3899 9.2642 19.9268 9.2642C20.6825 9.2642 21.2758 9.42992 21.7067 9.76136C22.1409 10.0928 22.4491 10.5303 22.6314 11.0739Z" fill="black"/>
<path d="M76.321 17.179C75.8371 17.179 75.398 17.0878 75.0036 16.9055C74.6091 16.7199 74.2959 16.4531 74.0639 16.1051C73.8319 15.7538 73.7159 15.3295 73.7159 14.8324C73.7159 14.3949 73.8021 14.0402 73.9744 13.7685C74.1468 13.4934 74.3771 13.2779 74.6655 13.1222C74.9538 12.9664 75.272 12.8504 75.62 12.7741C75.9714 12.6946 76.3243 12.6316 76.679 12.5852C77.143 12.5256 77.5192 12.4808 77.8075 12.451C78.0992 12.4179 78.3113 12.3632 78.4439 12.2869C78.5798 12.2107 78.6477 12.0781 78.6477 11.8892V11.8494C78.6477 11.3589 78.5135 10.9777 78.245 10.706C77.9799 10.4342 77.5772 10.2983 77.0369 10.2983C76.4768 10.2983 76.0376 10.4209 75.7195 10.6662C75.4013 10.9115 75.1776 11.1733 75.0483 11.4517L73.9347 11.054C74.1335 10.59 74.3987 10.2287 74.7301 9.97017C75.0649 9.70833 75.4295 9.52604 75.8239 9.4233C76.2216 9.31723 76.6127 9.2642 76.9972 9.2642C77.2424 9.2642 77.5241 9.29403 77.8423 9.35369C78.1638 9.41004 78.4737 9.5277 78.772 9.70668C79.0736 9.88565 79.3239 10.1558 79.5227 10.517C79.7216 10.8783 79.821 11.3622 79.821 11.9688V17H78.6477V15.9659H78.5881C78.5085 16.1316 78.3759 16.3089 78.1903 16.4979C78.0047 16.6868 77.7578 16.8475 77.4496 16.9801C77.1413 17.1127 76.7652 17.179 76.321 17.179ZM76.5 16.125C76.964 16.125 77.3551 16.0339 77.6733 15.8516C77.9948 15.6693 78.2367 15.4339 78.3991 15.1456C78.5649 14.8572 78.6477 14.554 78.6477 14.2358V13.1619C78.598 13.2216 78.4886 13.2763 78.3196 13.326C78.1539 13.3724 77.9616 13.4138 77.7429 13.4503C77.5275 13.4834 77.317 13.5133 77.1115 13.5398C76.9093 13.563 76.7453 13.5829 76.6193 13.5994C76.3144 13.6392 76.0294 13.7038 75.7642 13.7933C75.5024 13.8795 75.2902 14.0104 75.1278 14.1861C74.9688 14.3584 74.8892 14.5937 74.8892 14.892C74.8892 15.2997 75.04 15.608 75.3416 15.8168C75.6465 16.0223 76.0327 16.125 76.5 16.125ZM85.2836 9.36364V10.358H81.3262V9.36364H85.2836ZM82.4796 7.53409H83.6529V14.8125C83.6529 15.1439 83.7009 15.3925 83.7971 15.5582C83.8965 15.7206 84.0224 15.83 84.1749 15.8864C84.3307 15.9394 84.4947 15.9659 84.6671 15.9659C84.7963 15.9659 84.9024 15.9593 84.9853 15.946C85.0681 15.9295 85.1344 15.9162 85.1841 15.9062L85.4228 16.9602C85.3432 16.9901 85.2322 17.0199 85.0897 17.0497C84.9471 17.0829 84.7665 17.0994 84.5478 17.0994C84.2163 17.0994 83.8915 17.0282 83.5733 16.8857C83.2585 16.7431 82.9966 16.526 82.7878 16.2344C82.5823 15.9427 82.4796 15.5748 82.4796 15.1307V7.53409ZM90.0687 17.1591C89.3793 17.1591 88.7744 16.995 88.2541 16.6669C87.737 16.3388 87.3327 15.8797 87.041 15.2898C86.7527 14.6998 86.6085 14.0104 86.6085 13.2216C86.6085 12.4261 86.7527 11.7318 87.041 11.1385C87.3327 10.5452 87.737 10.0845 88.2541 9.75639C88.7744 9.42827 89.3793 9.2642 90.0687 9.2642C90.7581 9.2642 91.3613 9.42827 91.8784 9.75639C92.3987 10.0845 92.8031 10.5452 93.0914 11.1385C93.3831 11.7318 93.5289 12.4261 93.5289 13.2216C93.5289 14.0104 93.3831 14.6998 93.0914 15.2898C92.8031 15.8797 92.3987 16.3388 91.8784 16.6669C91.3613 16.995 90.7581 17.1591 90.0687 17.1591ZM90.0687 16.1051C90.5924 16.1051 91.0233 15.9709 91.3613 15.7024C91.6994 15.4339 91.9496 15.081 92.112 14.6435C92.2744 14.206 92.3556 13.732 92.3556 13.2216C92.3556 12.7112 92.2744 12.2356 92.112 11.7947C91.9496 11.3539 91.6994 10.9976 91.3613 10.7259C91.0233 10.4541 90.5924 10.3182 90.0687 10.3182C89.545 10.3182 89.1142 10.4541 88.7761 10.7259C88.438 10.9976 88.1878 11.3539 88.0254 11.7947C87.863 12.2356 87.7818 12.7112 87.7818 13.2216C87.7818 13.732 87.863 14.206 88.0254 14.6435C88.1878 15.081 88.438 15.4339 88.7761 15.7024C89.1142 15.9709 89.545 16.1051 90.0687 16.1051ZM95.32 17V9.36364H96.4535V10.517H96.533C96.6722 10.1392 96.9241 9.83262 97.2887 9.5973C97.6533 9.36198 98.0643 9.24432 98.5217 9.24432C98.6078 9.24432 98.7156 9.24597 98.8448 9.24929C98.9741 9.2526 99.0719 9.25758 99.1381 9.2642V10.4574C99.0984 10.4474 99.0072 10.4325 98.8647 10.4126C98.7255 10.3894 98.578 10.3778 98.4222 10.3778C98.051 10.3778 97.7196 10.4557 97.4279 10.6115C97.1396 10.764 96.9109 10.9761 96.7418 11.2479C96.5761 11.5163 96.4933 11.8229 96.4933 12.1676V17H95.32Z" fill="black"/>
<g filter="url(#filter0_d_478_6545)">
<rect x="25" y="1" width="47" height="23" rx="4" fill="#4FDBDB"/>
<path d="M27.5682 8.39205V6.36364H37.125V8.39205H33.5625V18H31.1307V8.39205H27.5682ZM41.3651 18.1705C40.4673 18.1705 39.6946 17.9886 39.0469 17.625C38.4029 17.2576 37.9067 16.7386 37.5582 16.0682C37.2098 15.3939 37.0355 14.5966 37.0355 13.6761C37.0355 12.7784 37.2098 11.9905 37.5582 11.3125C37.9067 10.6345 38.3973 10.1061 39.0298 9.72727C39.6662 9.34848 40.4124 9.15909 41.2685 9.15909C41.8442 9.15909 42.3802 9.25189 42.8764 9.4375C43.3764 9.61932 43.812 9.89394 44.1832 10.2614C44.5582 10.6288 44.8499 11.0909 45.0582 11.6477C45.2666 12.2008 45.3707 12.8485 45.3707 13.5909V14.2557H38.0014V12.7557H43.0923C43.0923 12.4072 43.0166 12.0985 42.8651 11.8295C42.7135 11.5606 42.5033 11.3504 42.2344 11.1989C41.9692 11.0436 41.6605 10.9659 41.3082 10.9659C40.9408 10.9659 40.6151 11.0511 40.331 11.2216C40.0507 11.3883 39.831 11.6136 39.6719 11.8977C39.5128 12.178 39.4313 12.4905 39.4276 12.8352V14.2614C39.4276 14.6932 39.5071 15.0663 39.6662 15.3807C39.8291 15.6951 40.0582 15.9375 40.3537 16.108C40.6491 16.2784 40.9995 16.3636 41.4048 16.3636C41.6738 16.3636 41.92 16.3258 42.1435 16.25C42.367 16.1742 42.5582 16.0606 42.7173 15.9091C42.8764 15.7576 42.9976 15.572 43.081 15.3523L45.3196 15.5C45.206 16.0379 44.973 16.5076 44.6207 16.9091C44.2723 17.3068 43.8215 17.6174 43.2685 17.8409C42.7192 18.0606 42.0848 18.1705 41.3651 18.1705ZM49.4389 18.1648C48.8821 18.1648 48.3859 18.0682 47.9503 17.875C47.5147 17.678 47.17 17.3883 46.9162 17.0057C46.6662 16.6193 46.5412 16.1383 46.5412 15.5625C46.5412 15.0777 46.6302 14.6705 46.8082 14.3409C46.9863 14.0114 47.2287 13.7462 47.5355 13.5455C47.8423 13.3447 48.1908 13.1932 48.581 13.0909C48.9749 12.9886 49.3878 12.9167 49.8196 12.875C50.3272 12.822 50.7363 12.7727 51.0469 12.7273C51.3575 12.678 51.5829 12.6061 51.723 12.5114C51.8632 12.4167 51.9332 12.2765 51.9332 12.0909V12.0568C51.9332 11.697 51.8196 11.4186 51.5923 11.2216C51.3688 11.0246 51.0507 10.9261 50.6378 10.9261C50.2022 10.9261 49.8556 11.0227 49.598 11.2159C49.3404 11.4053 49.17 11.6439 49.0866 11.9318L46.848 11.75C46.9616 11.2197 47.1851 10.7614 47.5185 10.375C47.8518 9.98485 48.2817 9.68561 48.8082 9.47727C49.3385 9.26515 49.9522 9.15909 50.6491 9.15909C51.134 9.15909 51.598 9.21591 52.0412 9.32955C52.4882 9.44318 52.884 9.61932 53.2287 9.85795C53.5772 10.0966 53.8518 10.4034 54.0526 10.7784C54.2533 11.1496 54.3537 11.5947 54.3537 12.1136V18H52.0582V16.7898H51.9901C51.8499 17.0625 51.6624 17.303 51.4276 17.5114C51.1927 17.7159 50.9105 17.8769 50.581 17.9943C50.2514 18.108 49.8707 18.1648 49.4389 18.1648ZM50.1321 16.4943C50.4882 16.4943 50.8026 16.4242 51.0753 16.2841C51.348 16.1402 51.562 15.947 51.7173 15.7045C51.8726 15.4621 51.9503 15.1875 51.9503 14.8807V13.9545C51.8745 14.0038 51.7704 14.0492 51.6378 14.0909C51.509 14.1288 51.3632 14.1648 51.2003 14.1989C51.0374 14.2292 50.8745 14.2576 50.7116 14.2841C50.5488 14.3068 50.401 14.3277 50.2685 14.3466C49.9844 14.3883 49.7363 14.4545 49.5241 14.5455C49.312 14.6364 49.1473 14.7595 49.0298 14.9148C48.9124 15.0663 48.8537 15.2557 48.8537 15.483C48.8537 15.8125 48.973 16.0644 49.2116 16.2386C49.4541 16.4091 49.7609 16.4943 50.1321 16.4943ZM56.2315 18V9.27273H58.5384V10.8125H58.6406C58.8224 10.3011 59.1255 9.89773 59.5497 9.60227C59.974 9.30682 60.4815 9.15909 61.0724 9.15909C61.6709 9.15909 62.1804 9.30871 62.6009 9.60795C63.0213 9.90341 63.3016 10.3049 63.4418 10.8125H63.5327C63.7107 10.3125 64.0327 9.91288 64.4986 9.61364C64.9683 9.31061 65.5232 9.15909 66.1634 9.15909C66.9777 9.15909 67.6387 9.41856 68.1463 9.9375C68.6577 10.4527 68.9134 11.1837 68.9134 12.1307V18H66.4986V12.608C66.4986 12.1231 66.3698 11.7595 66.1122 11.517C65.8546 11.2746 65.5327 11.1534 65.1463 11.1534C64.7069 11.1534 64.3641 11.2936 64.1179 11.5739C63.8717 11.8504 63.7486 12.2159 63.7486 12.6705V18H61.402V12.5568C61.402 12.1288 61.2789 11.7879 61.0327 11.5341C60.7902 11.2803 60.4702 11.1534 60.0724 11.1534C59.8035 11.1534 59.5611 11.2216 59.3452 11.358C59.133 11.4905 58.9645 11.678 58.8395 11.9205C58.7145 12.1591 58.652 12.4394 58.652 12.7614V18H56.2315Z" fill="white"/>
</g>
<path d="M66.6252 22.8027C66.6252 26.59 66.6252 30.2198 66.6252 33.9919" stroke="white" stroke-width="2" stroke-linecap="round"/>
<path d="M70.0408 28.8096V34.2275" stroke="white" stroke-width="2" stroke-linecap="round"/>
<path d="M73.4565 30.2227V34.345" stroke="white" stroke-width="2" stroke-linecap="round"/>
<path d="M76.6365 31.4004V35.1694" stroke="white" stroke-width="2" stroke-linecap="round"/>
<path d="M63.5629 33.4033H76.2832" stroke="white" stroke-width="2" stroke-linecap="round"/>
<path d="M63.3273 32.3428C63.3528 33.5883 63.9162 34.8976 63.9162 36.1118" stroke="white" stroke-width="2" stroke-linecap="round"/>
<path d="M67.0963 32.4609C68.5979 32.6721 70.0351 32.6965 71.572 32.6965C72.1609 32.6965 72.7498 32.6965 73.3387 32.6965C73.8853 32.6965 74.3293 33.0498 74.8698 33.0498" stroke="white" stroke-width="2" stroke-linecap="round"/>
<path d="M73.4565 29.9873L73.3387 29.3984" stroke="white" stroke-width="2" stroke-linecap="round"/>
<path d="M70.0408 28.1025V30.4581" stroke="white" stroke-width="2" stroke-linecap="round"/>
<path d="M66.6252 22.332V23.6276" stroke="white" stroke-width="2" stroke-linecap="round"/>
<path d="M63.9163 36.583C64.7342 36.9306 64.587 37.6725 65.1202 38.2058C65.2243 38.3099 65.5172 38.756 65.6306 38.8208C65.7701 38.9005 66.0765 39.2546 66.1541 39.4097" stroke="white" stroke-width="2" stroke-linecap="round"/>
<path d="M66.0363 39.999H74.5165" stroke="white" stroke-width="2" stroke-linecap="round"/>
<path d="M64.9763 34.8161C67.8605 34.6861 71.2084 34.2642 74.1631 34.6067C74.6799 34.6666 75.1775 34.6679 75.6943 34.6983C76.0519 34.7194 75.3039 35.2594 75.1577 35.2872C74.4959 35.4133 73.8876 35.6005 73.2144 35.6995C72.2604 35.8398 71.29 35.8279 70.3287 35.9678C69.0563 36.1528 67.6651 35.9939 66.3765 35.9939C65.7548 35.9939 64.9763 35.7951 64.9763 36.609C64.9763 37.4516 66.4646 37.4404 67.0898 37.5185C67.8121 37.6088 68.5355 37.6429 69.2687 37.6429C70.028 37.6429 71.1954 37.8649 71.8599 37.4662C72.6283 37.0051 73.6438 37.2978 74.4576 36.9362C74.7353 36.8128 74.9588 36.698 75.2755 36.5828C75.4659 36.5136 75.6151 36.1117 75.8121 36.1117C76.2668 36.1117 75.6774 36.7511 75.5765 36.8773C75.4867 36.9895 75.1842 37.0616 75.0465 37.1717C74.9209 37.2722 74.9549 37.5954 74.8436 37.7345C74.1849 38.5579 72.5358 38.4673 71.572 38.4673C70.1586 38.4673 68.7452 38.4673 67.3319 38.4673" stroke="white" stroke-width="2" stroke-linecap="round"/>
<path d="M74.3987 39.7635C74.8834 39.3848 74.7807 39.0018 75.1316 38.6119C75.3389 38.3815 75.1652 37.9501 75.4064 37.7089C75.7844 37.3309 75.7489 36.6625 76.0738 36.2562C76.2226 36.0703 76.2623 35.6588 76.3748 35.4056C76.529 35.0586 76.401 35.7184 76.401 35.9356C76.401 36.6084 75.7106 36.4332 75.4588 36.9368" stroke="white" stroke-width="2" stroke-linecap="round"/>
<path d="M66.3897 39.9986C66.3174 39.9514 65.2235 39.3728 65.2119 39.1742C65.1955 38.8961 64.9577 38.6143 64.8323 38.3497C64.5602 37.7751 64.3874 37.2194 64.3874 36.583" stroke="white" stroke-width="2" stroke-linecap="round"/>
<path d="M63.9163 31.5186V32.2252" stroke="white" stroke-width="2" stroke-linecap="round"/>
<path d="M63.3274 33.8745C63.2389 34.9583 63.1489 36.0798 63.2096 37.1724C63.2351 37.6314 64.0201 37.9774 64.1453 38.4156C64.2842 38.9018 64.8308 39.3005 65.1202 39.7635C65.4214 40.2453 66.5578 40.588 67.0963 40.588C68.1574 40.588 69.2448 40.7058 70.3222 40.7058C71.0823 40.7058 71.78 40.511 72.5142 40.4702C73.1522 40.4348 73.9409 40.3691 74.5754 40.2281C75.1406 40.1025 75.5437 38.8418 75.9037 38.4418C76.0865 38.2387 76.1654 37.8094 76.1654 37.5519C76.1654 37.1878 76.401 36.8819 76.401 36.518C76.401 35.7846 77.1077 35.0326 77.1077 34.2344C77.1077 33.5184 76.9093 32.8947 76.8721 32.2256C76.8457 31.7505 76.3836 30.9327 75.871 30.8188C75.3053 30.6931 74.7606 31.0829 74.1632 31.0478C73.9511 31.0353 74.0536 30.4981 74.0454 30.3411C74.0202 29.8634 73.5906 29.7506 73.3452 29.4643C72.9812 29.0396 72.3961 29.1633 71.9253 29.1633C71.4304 29.1633 70.8038 28.5989 70.3288 28.4632C70.1087 28.4003 69.9517 28.2762 69.7464 28.1622C69.4415 27.9928 69.2579 28.2211 68.9808 28.2211" stroke="white" stroke-width="2" stroke-linecap="round"/>
<path d="M70.9831 32.4606C70.9687 31.9313 70.7475 31.4247 70.7475 30.9294C70.7475 30.7931 70.708 30.5823 70.7737 30.4583C71.0072 30.0171 71.9547 30.5078 72.1674 30.6939C72.6865 31.1481 73.1443 31.6087 73.692 32.0156C73.8949 32.1663 74.761 32.7693 75.0399 32.6896C75.2374 32.6332 74.2237 31.8358 74.1108 31.7735C73.6671 31.5287 72.903 31.5543 72.403 31.5249C71.994 31.5008 71.6135 31.4472 71.2121 31.4071C70.7886 31.3647 70.5326 31.1623 70.1324 31.0734C69.6438 30.9648 69.1524 30.9294 68.6536 30.9294C68.2053 30.9294 67.8784 30.7532 67.4562 30.7004C67.0157 30.6453 67.2141 29.6925 67.2141 29.3067C67.2141 28.1945 67.7906 29.0979 68.2741 29.5815C68.3423 29.6497 68.4952 29.8603 68.3657 29.961C68.2794 30.0281 67.9382 29.4585 67.8553 29.3983C67.166 28.8969 67.3319 27.969 67.3319 27.2193C67.3319 26.7487 67.4136 26.2037 67.273 25.7536C67.1455 25.3458 66.9785 24.9952 66.9785 24.5693C66.9785 23.8626 66.9785 23.1559 66.9785 22.4492" stroke="white" stroke-width="2" stroke-linecap="round"/>
<path d="M66.2719 32.4607C65.8397 32.6741 65.0311 33.3261 64.4528 33.1609C64.3127 33.1208 64.3874 32.4751 64.3874 32.343C64.3874 31.7392 62.9556 32.6624 62.7123 32.9057C62.1601 33.4579 63.15 34.0786 63.3535 34.463C63.6764 35.0728 63.1996 35.7781 64.0341 36.1119" stroke="white" stroke-width="2" stroke-linecap="round"/>
<path d="M66.7133 21.375C66.9868 21.375 67.2491 21.4836 67.4425 21.677C67.6359 21.8704 67.7446 22.1327 67.7446 22.4062V31C67.7446 31.1823 67.817 31.3572 67.9459 31.4861C68.0749 31.6151 68.2497 31.6875 68.4321 31.6875C68.6144 31.6875 68.7893 31.6151 68.9182 31.4861C69.0471 31.3572 69.1196 31.1823 69.1196 31V27.5171L69.2378 27.5116C69.6737 27.4951 70.1137 27.5006 70.3598 27.5487C70.5441 27.5859 70.7641 27.6807 70.9758 27.799C71.0817 27.8568 71.1821 28.0011 71.1821 28.2308V31C71.1821 31.1823 71.2545 31.3572 71.3834 31.4861C71.5124 31.6151 71.6872 31.6875 71.8696 31.6875C72.0519 31.6875 72.2268 31.6151 72.3557 31.4861C72.4846 31.3572 72.5571 31.1823 72.5571 31V28.8481C72.6056 28.843 72.6542 28.8384 72.7028 28.8344C73.1373 28.8014 73.5058 28.8206 73.6763 28.8894C73.8386 28.9526 74.0888 29.174 74.3446 29.4806C74.4559 29.6126 74.5508 29.7419 74.6196 29.8368V31.6875C74.6196 31.8698 74.692 32.0447 74.8209 32.1736C74.9499 32.3026 75.1247 32.375 75.3071 32.375C75.4894 32.375 75.6643 32.3026 75.7932 32.1736C75.9221 32.0447 75.9946 31.8698 75.9946 31.6875V30.3125H76.4648C76.657 30.3125 76.847 30.3528 77.0226 30.4307C77.1983 30.5087 77.3556 30.6226 77.4846 30.7651C77.6135 30.9076 77.7111 31.0756 77.7711 31.2581C77.8311 31.4407 77.8522 31.6338 77.8329 31.825L77.4603 35.5581C77.4122 36.0379 77.2637 36.5021 77.0244 36.9207L75.1063 40.2785C75.0462 40.3837 74.9594 40.4712 74.8546 40.532C74.7498 40.5929 74.6307 40.625 74.5096 40.625H65.7302C65.617 40.6249 65.5055 40.5969 65.4057 40.5434C65.3059 40.4899 65.2209 40.4126 65.1582 40.3184L63.1878 37.3621C63.0049 37.088 62.8903 36.7739 62.8537 36.4464L62.3793 32.177C62.3601 32.0059 62.4059 31.8338 62.5075 31.6948C62.609 31.5558 62.7591 31.46 62.9279 31.4263L64.3071 31.1512V32.375C64.3071 32.5573 64.3795 32.7322 64.5084 32.8611C64.6374 32.9901 64.8122 33.0625 64.9946 33.0625C65.1769 33.0625 65.3518 32.9901 65.4807 32.8611C65.6096 32.7322 65.6821 32.5573 65.6821 32.375V22.4062C65.6821 22.1327 65.7907 21.8704 65.9841 21.677C66.1775 21.4836 66.4398 21.375 66.7133 21.375ZM69.1196 26.1407V22.4062C69.1196 21.7681 68.866 21.156 68.4148 20.7048C67.9635 20.2535 67.3515 20 66.7133 20C66.0751 20 65.4631 20.2535 65.0118 20.7048C64.5606 21.156 64.3071 21.7681 64.3071 22.4062V29.7488L62.6571 30.0787C62.1513 30.1801 61.7019 30.4674 61.3975 30.8838C61.0931 31.3002 60.9557 31.8156 61.0126 32.3282L61.4869 36.599C61.5479 37.1449 61.7389 37.6683 62.0438 38.1252L64.0142 41.0815C64.2025 41.364 64.4577 41.5957 64.757 41.7559C65.0564 41.9161 65.3907 42 65.7302 42H74.5096C74.8731 41.9999 75.2302 41.9037 75.5446 41.7211C75.8589 41.5386 76.1195 41.2762 76.2998 40.9605L78.2179 37.6041C78.5533 37.0174 78.7613 36.3667 78.8284 35.6942L79.2011 31.9611C79.2393 31.5788 79.197 31.1928 79.0769 30.8278C78.9568 30.4629 78.7615 30.1271 78.5037 29.8423C78.2459 29.5574 77.9313 29.3297 77.5801 29.1739C77.229 29.018 76.849 28.9375 76.4648 28.9375H75.6659C75.5801 28.8211 75.4907 28.7074 75.3978 28.5965C75.1352 28.2816 74.6966 27.8155 74.1878 27.612C73.6873 27.4112 73.0246 27.4305 72.5956 27.4635L72.4141 27.48C72.2677 27.1053 71.9954 26.7932 71.6441 26.5972C71.3277 26.4148 70.9856 26.2813 70.6293 26.2013C70.2031 26.116 69.6132 26.1215 69.1856 26.138L69.1196 26.1407Z" fill="#121212"/>
<defs>
<filter id="filter0_d_478_6545" x="21" y="1" width="55" height="31" filterUnits="userSpaceOnUse" color-interpolation-filters="sRGB">
<feFlood flood-opacity="0" result="BackgroundImageFix"/>
<feColorMatrix in="SourceAlpha" type="matrix" values="0 0 0 0 0 0 0 0 0 0 0 0 0 0 0 0 0 0 127 0" result="hardAlpha"/>
<feOffset dy="4"/>
<feGaussianBlur stdDeviation="2"/>
<feComposite in2="hardAlpha" operator="out"/>
<feColorMatrix type="matrix" values="0 0 0 0 0 0 0 0 0 0 0 0 0 0 0 0 0 0 0.25 0"/>
<feBlend mode="normal" in2="BackgroundImageFix" result="effect1_dropShadow_478_6545"/>
<feBlend mode="normal" in="SourceGraphic" in2="effect1_dropShadow_478_6545" result="shape"/>
</filter>
</defs>
</svg>
